<?xml version="1.0" standalone="no"?>
<!DOCTYPE svg PUBLIC "-//W3C//DTD SVG 20010904//EN"
 "http://www.w3.org/TR/2001/REC-SVG-20010904/DTD/svg10.dtd">
<svg version="1.0" xmlns="http://www.w3.org/2000/svg"
 width="236.000000pt" height="243.000000pt" viewBox="0 0 236.000000 243.000000"
 preserveAspectRatio="xMidYMid meet">
<metadata>
Created by potrace 1.16, written by Peter Selinger 2001-2019
</metadata>
<g transform="translate(0.000000,243.000000) scale(0.100000,-0.100000)"
fill="#4a9c41" stroke="none">
<path d="M1042 2285 c-210 -47 -381 -215 -438 -428 -17 -63 -18 -196 -3 -269
41 -197 209 -372 415 -434 86 -26 229 -24 319 4 349 108 514 492 354 821 -63
129 -209 251 -356 297 -70 22 -216 27 -291 9z m200 -82 c13 -12 18 -31 18 -74
l0 -58 47 -21 c89 -39 110 -75 76 -128 -38 -59 -70 -66 -123 -27 -53 39 -135
30 -140 -15 -7 -54 10 -65 148 -101 130 -34 172 -82 172 -196 -1 -100 -50
-173 -142 -210 -37 -15 -38 -16 -38 -67 0 -70 -8 -92 -36 -105 -68 -31 -104 2
-104 94 0 62 -1 65 -27 71 -60 15 -137 82 -156 135 -8 23 38 87 67 95 28 7 48
-3 105 -51 49 -40 104 -47 139 -17 57 49 30 88 -86 122 -160 47 -204 89 -210
200 -3 53 0 75 17 107 24 49 68 87 116 103 35 11 35 12 35 71 0 47 4 63 21 80
24 24 70 21 101 -8z"/>
<path d="M370 1015 c-8 -20 -16 -25 -44 -25 -59 0 -70 -41 -14 -55 l26 -7 -24
-71 c-26 -77 -29 -90 -14 -67 9 13 10 13 10 0 0 -8 -5 -22 -10 -30 -9 -13 -10
-13 -10 0 -1 8 -7 0 -15 -17 -11 -25 -20 -33 -40 -33 -28 0 -34 -24 -9 -38 13
-7 12 -19 -15 -93 -16 -46 -35 -98 -42 -115 -11 -27 -10 -36 4 -57 9 -13 29
-29 46 -35 25 -9 38 -7 78 13 49 25 142 110 131 121 -4 3 -47 -16 -96 -43 -50
-26 -93 -45 -97 -41 -4 4 13 64 38 134 l44 128 84 19 c142 32 118 45 -40 21
-30 -5 -33 -3 -26 13 4 10 23 62 42 116 28 76 40 98 57 102 137 28 253 61 245
70 -3 2 -57 -2 -121 -9 -107 -11 -117 -11 -138 6 -30 24 -39 23 -50 -7z"/>
<path d="M2058 813 c-14 -16 -29 -38 -33 -50 -3 -13 -13 -23 -20 -23 -8 0 -40
-26 -72 -58 -57 -57 -126 -102 -138 -90 -4 3 -12 32 -20 63 -9 42 -10 64 -2
86 16 42 -2 58 -39 35 -25 -17 -26 -21 -21 -84 3 -37 9 -83 12 -103 7 -34 5
-37 -44 -73 -64 -47 -86 -85 -70 -120 28 -60 125 -58 166 3 17 25 23 48 23 91
0 60 -2 58 83 98 4 2 7 -2 7 -8 0 -7 7 -27 16 -45 17 -37 61 -60 95 -50 29 9
107 82 124 116 11 21 24 28 60 33 28 5 45 12 45 21 0 11 -7 12 -32 4 -47 -13
-48 -12 -37 23 18 64 12 104 -22 132 -39 33 -49 33 -81 -1z"/>
<path d="M1012 761 c-21 -27 -65 -90 -97 -142 -33 -51 -60 -88 -62 -82 -2 6
12 54 31 106 40 107 42 119 21 141 -24 23 -42 9 -49 -38 -11 -74 -169 -275
-217 -276 -28 0 -30 41 -4 85 28 47 84 110 105 117 8 3 12 9 7 13 -12 14 -57
-17 -90 -62 -17 -24 -35 -43 -40 -43 -5 0 -7 30 -5 67 3 74 -7 88 -43 52 -20
-20 -21 -28 -16 -117 l7 -95 -35 -33 c-19 -18 -35 -35 -35 -38 0 -15 34 -3 55
20 23 24 25 25 47 10 38 -27 56 -19 128 54 78 77 78 77 34 -54 -13 -38 -28
-102 -35 -142 -10 -65 -10 -77 5 -99 31 -47 37 -38 57 85 7 41 23 99 35 128
28 65 146 242 196 295 61 64 81 32 35 -57 -27 -53 -115 -156 -133 -156 -17 0
-18 -14 -4 -41 17 -31 37 -23 91 35 28 30 78 71 111 90 68 41 70 42 61 19 -5
-11 -3 -14 6 -8 10 6 12 0 6 -26 -4 -19 -12 -39 -17 -46 -12 -15 5 -48 37 -69
39 -26 70 -10 132 66 55 67 58 69 76 52 17 -15 20 -16 30 0 67 94 101 137 105
133 3 -2 0 -11 -6 -18 -20 -24 -35 -113 -22 -136 13 -26 44 -43 64 -35 20 8
116 127 116 144 0 7 -25 -11 -56 -39 -66 -60 -94 -78 -94 -59 0 32 32 112 55
140 14 16 25 35 25 42 0 23 -25 47 -42 41 -17 -7 -96 -103 -117 -142 -18 -35
-29 -27 -21 15 7 40 24 77 47 103 12 14 11 18 -2 29 -26 22 -42 3 -75 -89 -28
-78 -42 -101 -94 -156 -42 -44 -69 -65 -85 -65 -23 0 -23 2 -17 50 9 68 14 77
42 84 13 4 42 24 64 46 62 62 51 123 -22 123 -33 0 -77 -40 -109 -99 -14 -27
-96 -80 -107 -70 -2 2 4 19 14 37 22 44 23 99 1 132 -26 40 -51 34 -95 -22z"/>
</g>
</svg>
